<svg width="20" height="20" viewBox="0 0 20 20" fill="none" xmlns="http://www.w3.org/2000/svg">
<circle cx="10" cy="10" r="10" fill="#C4C4C4"/>
<path d="M11.2566 9.81463L13.7211 7.35016C14.1143 6.95698 14.1143 6.32769 13.7211 5.90817C13.3279 5.51499 12.6986 5.51499 12.2791 5.90817L9.81463 8.37263L7.35016 5.90817C6.95698 5.51499 6.32769 5.51499 5.90817 5.90817C5.51499 6.30135 5.51499 6.93064 5.90817 7.35016L8.37263 9.81463L5.90817 12.2791C5.51499 12.6723 5.51499 13.3016 5.90817 13.7211C6.11793 13.9308 6.35384 14.0095 6.61608 14.0095C6.87833 14.0095 7.14038 13.9047 7.32399 13.7211L9.78846 11.2566L12.2529 13.7211C12.4627 13.9308 12.6986 14.0095 12.9608 14.0095C13.2231 14.0095 13.4851 13.9047 13.6687 13.7211C14.0619 13.3279 14.0619 12.6986 13.6687 12.2791L11.2566 9.81463Z" fill="#0D0C0C"/>
</svg>
